<mxfile host="app.diagrams.net" modified="2023-10-12T17:18:38.136Z" agent="Mozilla/5.0 (Windows NT 10.0; Win64; x64) AppleWebKit/537.36 (KHTML, like Gecko) Chrome/117.0.0.0 Safari/537.36" etag="Lw8g6Hg8iX3axNl3gizK" version="22.0.4" type="github">
  <diagram name="Page-1" id="rQiqq8WyKQuQtGKCiVco">
    <mxGraphModel dx="880" dy="446" grid="1" gridSize="10" guides="1" tooltips="1" connect="1" arrows="1" fold="1" page="1" pageScale="1" pageWidth="850" pageHeight="1100" background="#FFFFFF" math="0" shadow="0">
      <root>
        <mxCell id="0" />
        <mxCell id="1" parent="0" />
        <mxCell id="fNxhpOZee-MHplBEiG15-2" value="&lt;font style=&quot;font-size: 17px;&quot;&gt;TRAVELLERS&lt;/font&gt;" style="text;html=1;align=center;verticalAlign=middle;resizable=0;points=[];autosize=1;strokeColor=none;fillColor=none;" vertex="1" parent="1">
          <mxGeometry x="15" y="300" width="130" height="30" as="geometry" />
        </mxCell>
        <mxCell id="fNxhpOZee-MHplBEiG15-16" style="edgeStyle=orthogonalEdgeStyle;rounded=0;orthogonalLoop=1;jettySize=auto;html=1;exitX=0;exitY=0.5;exitDx=0;exitDy=0;entryX=1;entryY=0.5;entryDx=0;entryDy=0;" edge="1" parent="1" source="fNxhpOZee-MHplBEiG15-3" target="fNxhpOZee-MHplBEiG15-13">
          <mxGeometry relative="1" as="geometry">
            <Array as="points">
              <mxPoint x="450" y="260" />
              <mxPoint x="450" y="310" />
              <mxPoint x="420" y="310" />
              <mxPoint x="420" y="275" />
            </Array>
          </mxGeometry>
        </mxCell>
        <mxCell id="fNxhpOZee-MHplBEiG15-3" value="SYSTEM" style="ellipse;whiteSpace=wrap;html=1;aspect=fixed;" vertex="1" parent="1">
          <mxGeometry x="460" y="200" width="120" height="120" as="geometry" />
        </mxCell>
        <mxCell id="fNxhpOZee-MHplBEiG15-4" value="&lt;font style=&quot;font-size: 14px;&quot;&gt;INPUTS&lt;/font&gt;" style="swimlane;fontStyle=0;childLayout=stackLayout;horizontal=1;startSize=30;horizontalStack=0;resizeParent=1;resizeParentMax=0;resizeLast=0;collapsible=1;marginBottom=0;whiteSpace=wrap;html=1;" vertex="1" parent="1">
          <mxGeometry x="230" y="20" width="160" height="140" as="geometry" />
        </mxCell>
        <mxCell id="fNxhpOZee-MHplBEiG15-5" value="&lt;font style=&quot;font-size: 14px;&quot;&gt;Select country travelling&lt;/font&gt;" style="text;strokeColor=none;fillColor=none;align=left;verticalAlign=middle;spacingLeft=4;spacingRight=4;overflow=hidden;points=[[0,0.5],[1,0.5]];portConstraint=eastwest;rotatable=0;whiteSpace=wrap;html=1;" vertex="1" parent="fNxhpOZee-MHplBEiG15-4">
          <mxGeometry y="30" width="160" height="30" as="geometry" />
        </mxCell>
        <mxCell id="fNxhpOZee-MHplBEiG15-6" value="&lt;font style=&quot;font-size: 14px;&quot;&gt;Date of travelling&lt;/font&gt;" style="text;strokeColor=none;fillColor=none;align=left;verticalAlign=middle;spacingLeft=4;spacingRight=4;overflow=hidden;points=[[0,0.5],[1,0.5]];portConstraint=eastwest;rotatable=0;whiteSpace=wrap;html=1;" vertex="1" parent="fNxhpOZee-MHplBEiG15-4">
          <mxGeometry y="60" width="160" height="30" as="geometry" />
        </mxCell>
        <mxCell id="fNxhpOZee-MHplBEiG15-7" value="&lt;font style=&quot;font-size: 14px;&quot;&gt;Apply for a vaccine&lt;/font&gt;" style="text;strokeColor=none;fillColor=none;align=left;verticalAlign=middle;spacingLeft=4;spacingRight=4;overflow=hidden;points=[[0,0.5],[1,0.5]];portConstraint=eastwest;rotatable=0;whiteSpace=wrap;html=1;" vertex="1" parent="fNxhpOZee-MHplBEiG15-4">
          <mxGeometry y="90" width="160" height="20" as="geometry" />
        </mxCell>
        <mxCell id="fNxhpOZee-MHplBEiG15-18" value="&lt;span style=&quot;font-size: 14px;&quot;&gt;Book for the vaccine&lt;/span&gt;" style="text;strokeColor=none;fillColor=none;align=left;verticalAlign=middle;spacingLeft=4;spacingRight=4;overflow=hidden;points=[[0,0.5],[1,0.5]];portConstraint=eastwest;rotatable=0;whiteSpace=wrap;html=1;" vertex="1" parent="fNxhpOZee-MHplBEiG15-4">
          <mxGeometry y="110" width="160" height="30" as="geometry" />
        </mxCell>
        <mxCell id="fNxhpOZee-MHplBEiG15-10" style="edgeStyle=orthogonalEdgeStyle;rounded=0;orthogonalLoop=1;jettySize=auto;html=1;exitX=0.5;exitY=0;exitDx=0;exitDy=0;exitPerimeter=0;entryX=0;entryY=0.5;entryDx=0;entryDy=0;" edge="1" parent="1" source="fNxhpOZee-MHplBEiG15-1" target="fNxhpOZee-MHplBEiG15-6">
          <mxGeometry relative="1" as="geometry" />
        </mxCell>
        <mxCell id="fNxhpOZee-MHplBEiG15-1" value="Actor" style="shape=umlActor;verticalLabelPosition=bottom;verticalAlign=top;html=1;outlineConnect=0;" vertex="1" parent="1">
          <mxGeometry x="50" y="170" width="60" height="100" as="geometry" />
        </mxCell>
        <mxCell id="fNxhpOZee-MHplBEiG15-11" value="OUTPUTS" style="swimlane;fontStyle=0;childLayout=stackLayout;horizontal=1;startSize=30;horizontalStack=0;resizeParent=1;resizeParentMax=0;resizeLast=0;collapsible=1;marginBottom=0;whiteSpace=wrap;html=1;" vertex="1" parent="1">
          <mxGeometry x="210" y="190" width="190" height="190" as="geometry" />
        </mxCell>
        <mxCell id="fNxhpOZee-MHplBEiG15-12" value="&lt;font style=&quot;font-size: 14px;&quot;&gt;Display the vaccine requirement for that country&lt;/font&gt;" style="text;strokeColor=none;fillColor=none;align=left;verticalAlign=middle;spacingLeft=4;spacingRight=4;overflow=hidden;points=[[0,0.5],[1,0.5]];portConstraint=eastwest;rotatable=0;whiteSpace=wrap;html=1;" vertex="1" parent="fNxhpOZee-MHplBEiG15-11">
          <mxGeometry y="30" width="190" height="40" as="geometry" />
        </mxCell>
        <mxCell id="fNxhpOZee-MHplBEiG15-13" value="&lt;font style=&quot;font-size: 14px;&quot;&gt;Display vaccine intakes&lt;/font&gt;" style="text;strokeColor=none;fillColor=none;align=left;verticalAlign=middle;spacingLeft=4;spacingRight=4;overflow=hidden;points=[[0,0.5],[1,0.5]];portConstraint=eastwest;rotatable=0;whiteSpace=wrap;html=1;" vertex="1" parent="fNxhpOZee-MHplBEiG15-11">
          <mxGeometry y="70" width="190" height="30" as="geometry" />
        </mxCell>
        <mxCell id="fNxhpOZee-MHplBEiG15-14" value="&lt;font style=&quot;font-size: 14px;&quot;&gt;Display name of the vaccine and expiry date&lt;/font&gt;" style="text;strokeColor=none;fillColor=none;align=left;verticalAlign=middle;spacingLeft=4;spacingRight=4;overflow=hidden;points=[[0,0.5],[1,0.5]];portConstraint=eastwest;rotatable=0;whiteSpace=wrap;html=1;" vertex="1" parent="fNxhpOZee-MHplBEiG15-11">
          <mxGeometry y="100" width="190" height="40" as="geometry" />
        </mxCell>
        <mxCell id="fNxhpOZee-MHplBEiG15-19" value="&lt;font style=&quot;font-size: 14px;&quot;&gt;Send an email notification of the expiry date 2 days before&lt;/font&gt;" style="text;strokeColor=none;fillColor=none;align=left;verticalAlign=middle;spacingLeft=4;spacingRight=4;overflow=hidden;points=[[0,0.5],[1,0.5]];portConstraint=eastwest;rotatable=0;whiteSpace=wrap;html=1;" vertex="1" parent="fNxhpOZee-MHplBEiG15-11">
          <mxGeometry y="140" width="190" height="50" as="geometry" />
        </mxCell>
        <mxCell id="fNxhpOZee-MHplBEiG15-15" style="edgeStyle=orthogonalEdgeStyle;rounded=0;orthogonalLoop=1;jettySize=auto;html=1;exitX=1;exitY=0.5;exitDx=0;exitDy=0;entryX=0.5;entryY=0;entryDx=0;entryDy=0;" edge="1" parent="1" source="fNxhpOZee-MHplBEiG15-6" target="fNxhpOZee-MHplBEiG15-3">
          <mxGeometry relative="1" as="geometry">
            <Array as="points">
              <mxPoint x="390" y="85" />
              <mxPoint x="520" y="85" />
            </Array>
          </mxGeometry>
        </mxCell>
        <mxCell id="fNxhpOZee-MHplBEiG15-17" style="edgeStyle=orthogonalEdgeStyle;rounded=0;orthogonalLoop=1;jettySize=auto;html=1;exitX=0;exitY=0.5;exitDx=0;exitDy=0;entryX=0.5;entryY=0.5;entryDx=0;entryDy=0;entryPerimeter=0;" edge="1" parent="1" source="fNxhpOZee-MHplBEiG15-12" target="fNxhpOZee-MHplBEiG15-1">
          <mxGeometry relative="1" as="geometry">
            <Array as="points">
              <mxPoint x="140" y="240" />
              <mxPoint x="140" y="220" />
            </Array>
          </mxGeometry>
        </mxCell>
        <mxCell id="fNxhpOZee-MHplBEiG15-29" style="edgeStyle=orthogonalEdgeStyle;rounded=0;orthogonalLoop=1;jettySize=auto;html=1;exitX=0;exitY=0.5;exitDx=0;exitDy=0;" edge="1" parent="1" source="fNxhpOZee-MHplBEiG15-20" target="fNxhpOZee-MHplBEiG15-3">
          <mxGeometry relative="1" as="geometry" />
        </mxCell>
        <mxCell id="fNxhpOZee-MHplBEiG15-20" value="&lt;div style=&quot;&quot;&gt;&lt;span style=&quot;background-color: initial;&quot;&gt;COUNTRIES VACCINE REQUIREMENTS&amp;nbsp;&lt;/span&gt;&lt;/div&gt;" style="shape=internalStorage;whiteSpace=wrap;html=1;backgroundOutline=1;align=right;" vertex="1" parent="1">
          <mxGeometry x="670" y="180" width="150" height="90" as="geometry" />
        </mxCell>
        <mxCell id="fNxhpOZee-MHplBEiG15-22" value="&lt;font style=&quot;font-size: 13px;&quot;&gt;Ministry of Foreign Affairs&lt;/font&gt;" style="text;html=1;align=center;verticalAlign=middle;resizable=0;points=[];autosize=1;strokeColor=none;fillColor=none;" vertex="1" parent="1">
          <mxGeometry x="660" y="280" width="170" height="30" as="geometry" />
        </mxCell>
        <mxCell id="fNxhpOZee-MHplBEiG15-23" value="Actor" style="shape=umlActor;verticalLabelPosition=bottom;verticalAlign=top;html=1;outlineConnect=0;" vertex="1" parent="1">
          <mxGeometry x="70" y="590" width="70" height="80" as="geometry" />
        </mxCell>
        <mxCell id="fNxhpOZee-MHplBEiG15-24" value="&lt;font style=&quot;font-size: 14px;&quot;&gt;HOSPITAL&lt;/font&gt;" style="text;html=1;align=center;verticalAlign=middle;resizable=0;points=[];autosize=1;strokeColor=none;fillColor=none;" vertex="1" parent="1">
          <mxGeometry x="55" y="688" width="90" height="30" as="geometry" />
        </mxCell>
        <mxCell id="fNxhpOZee-MHplBEiG15-25" value="INPUT" style="swimlane;fontStyle=0;childLayout=stackLayout;horizontal=1;startSize=30;horizontalStack=0;resizeParent=1;resizeParentMax=0;resizeLast=0;collapsible=1;marginBottom=0;whiteSpace=wrap;html=1;" vertex="1" parent="1">
          <mxGeometry x="260" y="510" width="140" height="100" as="geometry" />
        </mxCell>
        <mxCell id="fNxhpOZee-MHplBEiG15-27" value="&lt;font style=&quot;font-size: 14px;&quot;&gt;Search for desired&amp;nbsp; Vaccine&lt;/font&gt;" style="text;strokeColor=none;fillColor=none;align=left;verticalAlign=middle;spacingLeft=4;spacingRight=4;overflow=hidden;points=[[0,0.5],[1,0.5]];portConstraint=eastwest;rotatable=0;whiteSpace=wrap;html=1;" vertex="1" parent="fNxhpOZee-MHplBEiG15-25">
          <mxGeometry y="30" width="140" height="70" as="geometry" />
        </mxCell>
      </root>
    </mxGraphModel>
  </diagram>
</mxfile>
